<svg xmlns="http://www.w3.org/2000/svg" width="26.464" height="24.461" viewBox="0 0 26.464 24.461">
  <g id="upload_1_" data-name="upload (1)" transform="translate(0 -18.4)">
    <g id="Group_5105" data-name="Group 5105" transform="translate(0 18.4)">
      <path id="Path_12267" data-name="Path 12267" d="M21.522,24.789a7.666,7.666,0,0,0-14.2-2.547,4.391,4.391,0,0,0-.805-.076,4.2,4.2,0,0,0-4.2,4.2,4.586,4.586,0,0,0,.087.871A5.838,5.838,0,0,0,0,31.939a6.242,6.242,0,0,0,1.584,4.13A5.652,5.652,0,0,0,5.5,38.04h4.724a.735.735,0,1,0,0-1.469H5.567a4.634,4.634,0,0,1-4.1-4.636,4.362,4.362,0,0,1,2.16-3.755.741.741,0,0,0,.321-.892,2.666,2.666,0,0,1-.163-.936,2.731,2.731,0,0,1,2.726-2.726,2.68,2.68,0,0,1,.931.163.738.738,0,0,0,.92-.375,6.2,6.2,0,0,1,11.771,2.041.734.734,0,0,0,.609.653,5.3,5.3,0,0,1-.5,10.459H16.233a.735.735,0,1,0,0,1.469h4.092a6.511,6.511,0,0,0,4.364-2.155,6.773,6.773,0,0,0-3.167-11.09Z" transform="translate(0 -18.4)" fill="#70c16f"/>
      <path id="Path_12268" data-name="Path 12268" d="M167.257,190.548a.732.732,0,0,0,0-1.039l-3.891-3.891a.743.743,0,0,0-.517-.218.721.721,0,0,0-.517.218l-3.891,3.891a.737.737,0,0,0,.517,1.257.717.717,0,0,0,.517-.218l2.639-2.639v12.13a.735.735,0,0,0,1.469,0v-12.13l2.639,2.639A.726.726,0,0,0,167.257,190.548Z" transform="translate(-149.615 -176.312)" fill="#70c16f"/>
    </g>
  </g>
</svg>
